# xmcd
# 
# Track frame offsets:
#     150
#     18827
#     37465
#     62535
#     83137
#     105980
#     122529
#     141747
#     157940
#     177172
#     193442
#     214817
#     227372
#     249957
# 
# Disc length: 3535
# 
# Revision: 10
# Processed by: cddbd v1.5.2PL0 Copyright (c) Steve Scherf et al.
# Submitted via: BonkEnc v1.0.8
# 
DISCID=ba0dcd0e
DTITLE=Zeze di Camargo and Luciano 1996 - Zeze di Camargo and Luciano
DYEAR=1996
DGENRE=Sertanejo
TTITLE0=Indiferenca
TTITLE1=Seus olhos
TTITLE2=Preciso ser amado
TTITLE3=Quando a gente ama de mais
TTITLE4=Nao tenha duvida
TTITLE5=E Deus por nos
TTITLE6=Refem de mim
TTITLE7=Saudade dos Beatles
TTITLE8=Outra vez por amor
TTITLE9=Brigue comigo, mas nao va
TTITLE10=Vivendo por viver
TTITLE11=Menina
TTITLE12=Sorriso bonito
TTITLE13=200 anos
EXTD=
EXTT0=
EXTT1=
EXTT2=
EXTT3=
EXTT4=
EXTT5=
EXTT6=
EXTT7=
EXTT8=
EXTT9=
EXTT10=
EXTT11=
EXTT12=
EXTT13=
PLAYORDER=
